<svg xmlns="http://www.w3.org/2000/svg" width="28" height="28" fill="none"><path fill="#1C1C1E" d="M7.944 21.88h12.103c1.907 0 2.9-.983 2.9-2.864V8.319c0-1.88-.993-2.865-2.9-2.865H7.944c-1.898 0-2.891.976-2.891 2.865v10.697c0 1.88.993 2.865 2.891 2.865m-.008-1.748c-.73 0-1.134-.378-1.134-1.152v-8.085c0-.774.404-1.152 1.134-1.152h12.12c.73 0 1.133.378 1.133 1.152v8.086c0 .773-.404 1.15-1.133 1.15zm4.368-7.357h.518c.317 0 .422-.096.422-.404v-.519c0-.316-.105-.412-.422-.412h-.518c-.317 0-.422.096-.422.412v.52c0 .307.105.403.422.403m2.874 0h.518c.308 0 .413-.096.413-.404v-.519c0-.316-.105-.412-.413-.412h-.518c-.317 0-.422.096-.422.412v.52c0 .307.105.403.422.403m2.865 0h.518c.317 0 .422-.096.422-.404v-.519c0-.316-.105-.412-.422-.412h-.518c-.308 0-.413.096-.413.412v.52c0 .307.105.403.413.403m-8.605 2.83h.51c.317 0 .422-.096.422-.413v-.518c0-.308-.105-.404-.422-.404h-.51c-.316 0-.421.096-.421.404v.518c0 .317.105.413.421.413m2.866 0h.518c.317 0 .422-.096.422-.413v-.518c0-.308-.105-.404-.422-.404h-.518c-.317 0-.422.096-.422.404v.518c0 .317.105.413.422.413m2.874 0h.518c.308 0 .413-.096.413-.413v-.518c0-.308-.105-.404-.413-.404h-.518c-.317 0-.422.096-.422.404v.518c0 .317.105.413.422.413m2.865 0h.518c.317 0 .422-.096.422-.413v-.518c0-.308-.105-.404-.422-.404h-.518c-.308 0-.413.096-.413.404v.518c0 .317.105.413.413.413m-8.605 2.822h.51c.317 0 .422-.097.422-.404v-.52c0-.316-.105-.412-.422-.412h-.51c-.316 0-.421.096-.421.413v.518c0 .308.105.405.421.405m2.866 0h.518c.317 0 .422-.097.422-.404v-.52c0-.316-.105-.412-.422-.412h-.518c-.317 0-.422.096-.422.413v.518c0 .308.105.405.422.405m2.874 0h.518c.308 0 .413-.097.413-.404v-.52c0-.316-.105-.412-.413-.412h-.518c-.317 0-.422.096-.422.413v.518c0 .308.105.405.422.405"/></svg>