<svg xmlns="http://www.w3.org/2000/svg" width="28" height="28" fill="none"><path fill="#1C1C1E" d="M9.175 21.88h9.641c1.82 0 2.813-.966 2.813-2.776v-8.508c.826-.22 1.292-.923 1.292-1.899V7.423c0-1.195-.694-1.969-1.898-1.969H6.978c-1.16 0-1.908.774-1.908 1.969v1.274c0 .976.466 1.67 1.301 1.899v8.508c0 1.81.993 2.777 2.804 2.777M7.312 9.059c-.405 0-.58-.185-.58-.59v-.817c0-.404.175-.588.58-.588h13.385c.396 0 .563.184.563.588v.818c0 .404-.167.589-.563.589zm1.95 11.144c-.738 0-1.142-.395-1.142-1.142v-8.394h11.751v8.394c0 .747-.404 1.142-1.134 1.142zm1.908-5.941h5.66c.422 0 .72-.308.72-.738v-.282c0-.43-.298-.72-.72-.72h-5.66c-.422 0-.72.29-.72.72v.282c0 .43.298.738.72.738"/></svg>