<svg xmlns="http://www.w3.org/2000/svg" width="28" height="28" fill="none"><path fill="#1C1C1E" d="M6.925 19.578h3.62c.062 1.67 1.434 3.217 3.455 3.217 2.013 0 3.393-1.53 3.463-3.217h3.612c.914 0 1.477-.5 1.477-1.257 0-.94-.853-1.74-1.653-2.505-.624-.606-.773-1.819-.887-3.058-.123-3.314-1.099-5.529-3.384-6.355C16.285 5.234 15.31 4.347 14 4.347s-2.285.887-2.62 2.056c-2.293.826-3.26 3.041-3.392 6.355-.114 1.24-.263 2.452-.887 3.058-.8.765-1.653 1.565-1.653 2.505 0 .756.563 1.257 1.477 1.257m.668-1.635v-.105c.228-.255.738-.72 1.169-1.213.606-.694.887-1.977.975-3.648.106-3.524 1.196-4.71 2.602-5.088.22-.062.334-.167.351-.405C12.734 6.597 13.235 6 14 6c.773 0 1.266.598 1.31 1.485.017.238.14.343.351.405 1.415.378 2.496 1.564 2.602 5.088.096 1.67.378 2.954.975 3.648.43.492.923.958 1.152 1.213v.105zM14 21.38c-.993 0-1.705-.712-1.767-1.802h3.542c-.052 1.081-.773 1.802-1.775 1.802"/></svg>